{
.appVersion = "3151";
.formatVersion = 3;
DisplayStrings = (
"basely aflyse sayable syd easy hylegs casey addysg classy ashley selflessly salably sally selby sagely ayes byls dyads assayable agelessly syg cycladas say feysydd eyeglass assays hysbys dyes hyads ghylls",
abcdefghlsy,
n,
"jig jil

entity

lyrical

geology

magma

theology

antagonist
assault
cybernetic


federal bureau of control
system

mfy
llllllgfnlllpl -yfa
dddlffs    wgiiif

anachronistic
dalladdfgl  
chain

magma",
h,
"network
stack ",
a,
"agency

system renue

lymphnodes

whimpy

hydepark

vindicate
valenntine",
"vindicate
acuvue
hark native
derived
lemurian 
time wars
sarceligious
xenomorphs
architecture",
v,
"sex

llnxenomorph
llalll
hozier
church
razor
queen regent
acronym",
eszebrausxsg,
d,
"&/sharp_corner",
queen
);
axes = (
{
name = Weight;
tag = wght;
}
);
date = "2023-05-27 06:07:57 +0000";
familyName = "As Above, So Below4";
fontMaster = (
{
axesValues = (
0
);
guides = (
{
angle = 270;
pos = (840,563);
},
{
angle = 270;
pos = (770,563);
},
{
angle = 270;
pos = (560,563);
},
{
angle = 270;
pos = (490,563);
},
{
angle = 270;
pos = (420,563);
},
{
angle = 270;
pos = (350,563);
},
{
angle = 270;
pos = (280,563);
},
{
angle = 270;
pos = (210,563);
},
{
angle = 270;
pos = (140,563);
},
{
angle = 270;
pos = (104,563);
},
{
angle = 270;
pos = (0,563);
}
);
iconName = Bold_SemiCondensed;
id = m01;
metricValues = (
{
pos = 1521;
},
{
over = 12;
pos = 500;
},
{
over = -12;
},
{
pos = -1521;
},
{
over = -16;
},
{
}
);
name = Ligature;
}
);
glyphs = (
{
glyphname = a;
lastChange = "2023-06-05 09:55:46 +0000";
layers = (
{
layerId = m01;
shapes = (
{
closed = 1;
nodes = (
(490,52,o),
(386,23,o),
(317,23,cs),
(238,23,o),
(179,57,o),
(174,145,c),
(313,206,o),
(447,295,o),
(534,351,c),
(516,364,l),
(420,295,o),
(223,204,o),
(70,145,c),
(66,32,o),
(162,-8,o),
(294,-8,cs),
(427,-8,o),
(560,65,o),
(559,173,c),
(490,150,l)
);
},
{
closed = 1;
nodes = (
(490,142,l),
(560,168,l),
(560,315,l),
(490,356,l)
);
},
{
closed = 0;
nodes = (
(405,449,l)
);
},
{
closed = 1;
nodes = (
(137,384,l),
(195,428,o),
(261,452,o),
(362,452,c),
(504,455,o),
(490,364,o),
(490,346,c),
(560,315,l),
(560,395,o),
(576,509,o),
(409,509,c),
(271,509,o),
(162,435,o),
(110,391,c)
);
},
{
closed = 1;
nodes = (
(560,14,l),
(560,245,l),
(534,245,l),
(490,-12,l)
);
}
);
width = 630;
}
);
unicode = 97;
},
{
glyphname = b;
lastChange = "2023-06-05 08:30:48 +0000";
layers = (
{
layerId = m01;
shapes = (
{
closed = 1;
nodes = (
(70,2426,l),
(70,231,l),
(140,260,l),
(140,2449,ls),
(140,2513,o),
(139,3297,o),
(140,3512,c),
(70,3512,l)
);
},
{
closed = 1;
nodes = (
(70,3654,l),
(70,3418,l),
(140,3418,l),
(140,3680,l)
);
},
{
closed = 1;
nodes = (
(457,455,o),
(562,361,o),
(561,239,cs),
(561,100,o),
(483,21,o),
(364,21,cs),
(251,21,o),
(141,132,o),
(140,262,c),
(71,239,l),
(71,90,o),
(170,-9,o),
(341,-9,cs),
(514,-9,o),
(630,118,o),
(630,262,cs),
(630,385,o),
(531,511,o),
(365,511,c),
(204,511,o),
(74,361,o),
(76,362,c),
(104,362,l),
(169,421,o),
(240,455,o),
(359,455,cs)
);
},
{
closed = 1;
nodes = (
(140,14,l),
(103,207,l),
(70,252,l),
(70,-12,l)
);
},
{
closed = 1;
nodes = (
(70,-12,l),
(140,14,l)
);
},
{
closed = 1;
nodes = (
(140,14,l),
(103,207,l),
(70,252,l),
(70,-12,l)
);
}
);
width = 700;
}
);
unicode = 98;
},
{
glyphname = c;
lastChange = "2023-06-05 08:31:06 +0000";
layers = (
{
layerId = m01;
shapes = (
{
closed = 1;
nodes = (
(474,40,o),
(436,21,o),
(365,21,cs),
(252,21,o),
(140,132,o),
(139,262,cs),
(140,402,o),
(220,481,o),
(342,481,cs),
(389,480,o),
(443,457,o),
(494,405,c),
(564,431,l),
(526,470,o),
(461,511,o),
(365,511,cs),
(213,511,o),
(70,397,o),
(70,239,cs),
(70,90,o),
(171,-10,o),
(342,-9,cs),
(417,-10,o),
(509,35,o),
(554,86,c),
(517,89,l)
);
}
);
width = 630;
}
);
unicode = 99;
},
{
glyphname = d;
lastChange = "2023-06-06 05:36:20 +0000";
layers = (
{
layerId = m01;
shapes = (
{
closed = 1;
nodes = (
(446,481,o),
(520,415,o),
(577,321,c),
(606,416,ls),
(610,428,o),
(490,511,o),
(350,511,c),
(191,511,o),
(70,379,o),
(70,239,cs),
(70,90,o),
(169,-9,o),
(340,-9,cs),
(503,-9,o),
(616,103,o),
(629,236,c),
(597,236,l),
(597,236,l),
(630,236,l),
(630,3661,l),
(560,3635,l),
(560,3301,ls),
(560,2939,o),
(560,2433,o),
(560,2407,cs),
(560,236,ls),
(560,99,o),
(481,21,o),
(363,21,cs),
(250,21,o),
(140,132,o),
(139,262,cs),
(138,402,o),
(246,481,o),
(346,481,cs)
);
},
{
closed = 1;
nodes = (
(560,486,l),
(560,255,l),
(586,255,l),
(630,512,l)
);
},
{
closed = 1;
nodes = (
(630,14,l),
(630,245,l),
(604,245,l),
(560,-12,l)
);
}
);
width = 700;
}
);
unicode = 100;
},
{
glyphname = e;
layers = (
{
layerId = m01;
shapes = (
{
closed = 1;
nodes = (
(288,218,o),
(480,290,o),
(583,382,c),
(555,457,o),
(485,512,o),
(363,511,cs),
(211,511,o),
(71,371,o),
(70,239,cs),
(71,90,o),
(169,-10,o),
(340,-9,cs),
(399,-9,o),
(477,21,o),
(521,58,c),
(495,67,l),
(454,33,o),
(425,22,o),
(363,21,cs),
(250,21,o),
(140,132,o),
(139,262,cs),
(140,402,o),
(218,481,o),
(340,481,cs),
(392,481,o),
(452,451,o),
(480,371,c),
(387,292,o),
(274,236,o),
(142,198,c),
(139,175,l)
);
}
);
width = 630;
}
);
unicode = 101;
},
{
glyphname = f;
lastChange = "2023-06-06 05:28:42 +0000";
layers = (
{
layerId = m01;
shapes = (
{
closed = 1;
nodes = (
(140,3501,o),
(128,3501,o),
(114,3501,cs),
(108,3501,o),
(103,3501,o),
(97,3501,cs),
(83,3501,o),
(70,3501,o),
(70,3501,cs),
(70,3501,o),
(70,2905,o),
(70,2699,cs),
(70,2406,l),
(70,-12,l),
(140,14,l),
(140,2429,ls),
(140,2447,o),
(140,2566,o),
(140,2721,cs),
(140,3501,ls)
);
},
{
closed = 1;
nodes = (
(350,500,l),
(281,493,l),
(154,476,o),
(82,444,o),
(7,389,c),
(7,389,o),
(-2,383,o),
(0,384,c),
(19,372,l),
(19,372,o),
(24,375,o),
(27,377,cs),
(85,417,o),
(163,421,o),
(281,431,c)
);
},
{
closed = 1;
nodes = (
(140,3597,o),
(138,3625,o),
(202,3653,cs),
(206,3655,o),
(210,3658,o),
(210,3658,c),
(210,3680,l),
(212,3681,o),
(203,3676,o),
(203,3676,c),
(116,3642,o),
(70,3631,o),
(70,3501,c),
(140,3501,l)
);
}
);
width = 280;
}
);
unicode = 102;
},
{
glyphname = g;
layers = (
{
layerId = m01;
shapes = (
{
closed = 1;
nodes = (
(288,20,o),
(144,118,o),
(144,263,cs),
(144,404,o),
(218,478,o),
(336,478,cs),
(445,478,o),
(556,366,o),
(556,236,cs),
(556,93,o),
(429,63,o),
(280,-101,c),
(280,-101,o),
(290,-125,o),
(290,-125,c),
(374,-62,o),
(490,-44,o),
(490,-413,cs),
(490,-747,l),
(490,-3176,l),
(560,-3150,l),
(561,-720,l),
(560,-386,ls),
(559,-125,o),
(460,-9,o),
(337,-76,c),
(452,16,o),
(630,69,o),
(630,259,c),
(630,408,o),
(506,511,o),
(363,511,cs),
(210,511,o),
(70,385,o),
(70,236,cs),
(70,87,o),
(183,-13,o),
(378,-12,c),
(420,20,l)
);
},
{
closed = 1;
nodes = (
(560,486,l),
(560,255,l),
(586,255,l),
(630,512,l)
);
}
);
width = 700;
}
);
unicode = 103;
},
{
glyphname = h;
lastChange = "2023-06-05 08:32:46 +0000";
layers = (
{
layerId = m01;
shapes = (
{
closed = 1;
nodes = (
(140,17,o),
(140,373,o),
(140,373,c),
(70,324,l),
(70,142,o),
(70,-12,o),
(70,-9,c),
(140,17,l)
);
},
{
closed = 1;
nodes = (
(560,500,l),
(335,500,o),
(195,432,o),
(103,364,c),
(100,361,o),
(94,358,o),
(96,359,c),
(115,347,l),
(116,352,o),
(120,350,o),
(123,352,cs),
(195,401,o),
(363,435,o),
(503,435,c),
(490,-10,l),
(560,16,l)
);
},
{
closed = 1;
nodes = (
(70,305,l),
(103,262,l),
(140,510,l),
(70,481,l)
);
},
{
closed = 1;
nodes = (
(70,2426,l),
(70,231,l),
(140,260,l),
(140,2449,ls),
(140,2513,o),
(139,3297,o),
(140,3512,c),
(70,3512,l)
);
},
{
closed = 1;
nodes = (
(70,3654,l),
(70,3418,l),
(140,3418,l),
(140,3680,l)
);
}
);
width = 630;
}
);
unicode = 104;
},
{
glyphname = i;
lastChange = "2023-06-05 09:44:51 +0000";
layers = (
{
layerId = m01;
shapes = (
{
closed = 1;
nodes = (
(70,370,l),
(70,-12,l),
(140,14,l),
(140,393,l)
);
},
{
closed = 1;
nodes = (
(70,486,l),
(70,250,l),
(140,250,l),
(140,512,l)
);
},
{
closed = 1;
nodes = (
(70,802,l),
(70,571,l),
(96,571,l),
(140,828,l)
);
}
);
width = 210;
}
);
unicode = 105;
},
{
glyphname = j;
lastChange = "2023-06-06 05:38:21 +0000";
layers = (
{
layerId = m01;
shapes = (
{
closed = 1;
nodes = (
(70,-3008,o),
(82,-3008,o),
(96,-3008,cs),
(102,-3008,o),
(107,-3008,o),
(113,-3008,cs),
(127,-3008,o),
(140,-3008,o),
(140,-3008,cs),
(140,-3008,o),
(140,-2412,o),
(140,-2206,cs),
(140,-1913,l),
(140,505,l),
(70,479,l),
(70,-1936,ls),
(70,-1954,o),
(70,-2073,o),
(70,-2228,cs),
(70,-3008,ls)
);
},
{
closed = 1;
nodes = (
(70,-3104,o),
(72,-3132,o),
(8,-3160,cs),
(4,-3162,o),
(0,-3165,o),
(0,-3165,c),
(0,-3187,l),
(-2,-3188,o),
(7,-3183,o),
(7,-3183,c),
(94,-3149,o),
(140,-3138,o),
(140,-3008,c),
(70,-3008,l)
);
},
{
closed = 1;
nodes = (
(70,802,l),
(70,571,l),
(96,571,l),
(140,828,l)
);
}
);
width = 210;
}
);
unicode = 106;
},
{
glyphname = k;
lastChange = "2023-06-06 08:10:13 +0000";
layers = (
{
layerId = m01;
shapes = (
{
closed = 1;
nodes = (
(140,17,o),
(140,373,o),
(140,373,c),
(70,324,l),
(70,142,o),
(70,-12,o),
(70,-9,c),
(140,17,l)
);
},
{
closed = 1;
nodes = (
(335,500,o),
(194,432,o),
(102,364,c),
(99,361,o),
(93,358,o),
(95,359,c),
(114,347,l),
(115,352,o),
(119,350,o),
(122,352,cs),
(194,401,o),
(363,435,o),
(502,435,c),
(560,500,l)
);
},
{
closed = 1;
nodes = (
(70,305,l),
(103,262,l),
(140,510,l),
(70,481,l)
);
},
{
closed = 1;
nodes = (
(70,2426,l),
(70,231,l),
(140,260,l),
(140,2449,ls),
(140,2513,o),
(139,3297,o),
(140,3512,c),
(70,3512,l)
);
},
{
closed = 1;
nodes = (
(70,3654,l),
(70,3418,l),
(140,3418,l),
(140,3680,l)
);
},
{
closed = 1;
nodes = (
(560,85,l),
(140,363,l),
(125,320,l),
(560,-13,l)
);
}
);
width = 630;
}
);
unicode = 107;
},
{
glyphname = l;
lastChange = "2023-06-05 08:37:31 +0000";
layers = (
{
layerId = m01;
shapes = (
{
closed = 1;
nodes = (
(70,2423,l),
(70,-12,l),
(140,14,l),
(140,2446,l),
(140,2510,o),
(139,3294,o),
(140,3509,c),
(70,3509,l)
);
},
{
closed = 1;
nodes = (
(70,3651,l),
(70,3415,l),
(140,3415,l),
(140,3677,l)
);
}
);
width = 210;
}
);
unicode = 108;
},
{
glyphname = m;
lastChange = "2023-06-05 09:11:01 +0000";
layers = (
{
layerId = m01;
shapes = (
{
closed = 1;
nodes = (
(140,13,o),
(140,373,o),
(140,373,c),
(70,324,l),
(70,138,o),
(70,-16,o),
(70,-13,c),
(140,13,l)
);
},
{
closed = 1;
nodes = (
(445,500,l),
(299,500,o),
(220,432,o),
(128,364,c),
(125,361,o),
(119,358,o),
(121,359,c),
(119,320,ls),
(119,315,o),
(128,338,o),
(148,352,cs),
(217,400,o),
(286,435,o),
(388,435,c),
(375,-14,l),
(445,12,l)
);
},
{
closed = 1;
nodes = (
(770,502,l),
(624,502,o),
(538,429,o),
(446,361,c),
(443,358,o),
(437,355,o),
(439,356,c),
(437,324,ls),
(437,319,o),
(453,340,o),
(473,354,cs),
(543,403,o),
(611,437,o),
(713,437,c),
(700,-12,l),
(770,14,l)
);
},
{
closed = 1;
nodes = (
(70,305,l),
(103,262,l),
(141,510,l),
(71,484,l)
);
}
);
width = 840;
}
);
unicode = 109;
},
{
glyphname = n;
lastChange = "2023-06-05 08:45:26 +0000";
layers = (
{
layerId = m01;
shapes = (
{
closed = 1;
nodes = (
(140,14,o),
(140,373,o),
(140,373,c),
(70,324,l),
(70,142,o),
(70,-15,o),
(70,-12,c),
(140,14,l)
);
},
{
closed = 1;
nodes = (
(560,500,l),
(335,500,o),
(195,432,o),
(103,364,c),
(100,361,o),
(94,358,o),
(96,359,c),
(115,347,l),
(116,352,o),
(120,350,o),
(123,352,cs),
(195,401,o),
(363,435,o),
(503,435,c),
(490,-12,l),
(560,14,l)
);
},
{
closed = 1;
nodes = (
(70,307,l),
(103,264,l),
(141,512,l),
(71,486,l)
);
}
);
width = 630;
}
);
unicode = 110;
},
{
glyphname = o;
lastChange = "2023-06-05 07:58:16 +0000";
layers = (
{
layerId = m01;
shapes = (
{
closed = 1;
nodes = (
(513,-9,o),
(630,118,o),
(630,262,cs),
(630,385,o),
(530,511,o),
(363,511,cs),
(211,511,o),
(70,385,o),
(70,239,cs),
(70,90,o),
(169,-9,o),
(340,-9,cs)
);
},
{
closed = 1;
nodes = (
(250,21,o),
(140,132,o),
(139,262,cs),
(138,402,o),
(240,481,o),
(340,481,cs),
(460,481,o),
(561,370,o),
(560,239,cs),
(560,100,o),
(482,21,o),
(363,21,cs)
);
}
);
width = 700;
}
);
unicode = 111;
},
{
glyphname = p;
lastChange = "2023-06-06 03:45:01 +0000";
layers = (
{
layerId = m01;
shapes = (
{
closed = 1;
nodes = (
(70,-759,l),
(70,-3178,l),
(140,-3149,l),
(140,-737,ls),
(140,-673,o),
(139,184,o),
(140,397,c),
(70,397,l)
);
},
{
closed = 1;
nodes = (
(457,455,o),
(562,361,o),
(561,239,cs),
(561,100,o),
(483,21,o),
(364,21,cs),
(251,21,o),
(141,132,o),
(140,262,c),
(71,239,l),
(71,90,o),
(170,-9,o),
(341,-9,cs),
(514,-9,o),
(630,118,o),
(630,262,cs),
(630,385,o),
(531,511,o),
(365,511,c),
(204,511,o),
(74,361,o),
(76,362,c),
(104,362,l),
(169,421,o),
(240,455,o),
(359,455,cs)
);
},
{
closed = 1;
nodes = (
(140,14,l),
(103,207,l),
(70,252,l),
(70,-12,l)
);
},
{
closed = 1;
nodes = (
(70,-12,l),
(140,14,l)
);
},
{
closed = 1;
nodes = (
(70,486,l),
(70,255,l),
(96,255,l),
(140,512,l)
);
}
);
width = 700;
}
);
unicode = 112;
},
{
glyphname = q;
lastChange = "2023-06-06 09:34:29 +0000";
layers = (
{
layerId = m01;
shapes = (
{
closed = 1;
nodes = (
(630,290,l),
(560,289,l),
(560,236,ls),
(560,99,o),
(481,21,o),
(363,21,cs),
(250,21,o),
(140,132,o),
(139,262,cs),
(138,402,o),
(246,481,o),
(346,481,cs),
(446,481,o),
(520,415,o),
(577,321,c),
(606,379,ls),
(612,390,o),
(490,511,o),
(350,511,c),
(191,511,o),
(70,379,o),
(70,239,cs),
(70,90,o),
(169,-9,o),
(340,-9,cs),
(503,-9,o),
(616,103,o),
(629,236,c),
(630,251,l)
);
},
{
closed = 1;
nodes = (
(560,-742,l),
(560,-3177,l),
(630,-3148,l),
(630,-719,ls),
(630,-655,o),
(629,174,o),
(630,389,c),
(560,389,l)
);
},
{
closed = 1;
nodes = (
(560,486,l),
(597,293,l),
(630,248,l),
(630,512,l)
);
}
);
width = 700;
}
);
unicode = 113;
},
{
glyphname = r;
lastChange = "2023-06-06 09:42:09 +0000";
layers = (
{
layerId = m01;
shapes = (
{
closed = 1;
nodes = (
(140,14,o),
(140,373,o),
(140,373,c),
(70,324,l),
(70,142,o),
(70,-15,o),
(70,-12,c),
(140,14,l)
);
},
{
closed = 1;
nodes = (
(490,500,l),
(421,493,l),
(244,475,o),
(178,419,o),
(103,364,c),
(100,361,o),
(94,358,o),
(96,359,c),
(115,347,l),
(116,352,o),
(120,350,o),
(123,352,cs),
(181,392,o),
(303,421,o),
(421,431,c)
);
},
{
closed = 1;
nodes = (
(70,307,l),
(103,264,l),
(141,512,l),
(71,486,l)
);
}
);
width = 490;
}
);
unicode = 114;
},
{
glyphname = s;
lastChange = "2023-06-06 09:04:36 +0000";
layers = (
{
layerId = m01;
shapes = (
{
closed = 1;
nodes = (
(396,490,o),
(290,516,o),
(217,508,cs),
(143,500,o),
(30,455,o),
(39,358,c),
(52,240,o),
(364,222,o),
(375,118,c),
(380,69,o),
(317,38,o),
(259,31,cs),
(175,21,o),
(102,42,o),
(77,72,c),
(51,65,l),
(76,20,o),
(171,-19,o),
(285,-9,cs),
(399,1,o),
(453,63,o),
(445,138,c),
(431,273,o),
(128,291,o),
(119,382,c),
(112,442,o),
(158,482,o),
(222,490,c),
(293,496,o),
(358,457,o),
(390,407,c),
(460,433,l)
);
}
);
width = 490;
}
);
unicode = 115;
},
{
glyphname = t;
lastChange = "2023-06-05 09:41:56 +0000";
layers = (
{
layerId = m01;
shapes = (
{
closed = 1;
nodes = (
(140,2423,l),
(140,-12,l),
(210,14,l),
(210,2446,l),
(210,2510,o),
(209,3294,o),
(210,3509,c),
(140,3509,l)
);
},
{
closed = 1;
nodes = (
(139,3654,l),
(139,3418,l),
(209,3418,l),
(209,3680,l)
);
},
{
closed = 1;
nodes = (
(350,500,l),
(281,493,l),
(154,476,o),
(82,444,o),
(7,389,c),
(7,389,o),
(-2,383,o),
(0,384,c),
(19,372,l),
(19,372,o),
(24,375,o),
(27,377,cs),
(85,417,o),
(163,421,o),
(281,431,c)
);
}
);
width = 350;
}
);
unicode = 116;
},
{
glyphname = u;
lastChange = "2023-06-06 08:31:43 +0000";
layers = (
{
layerId = m01;
shapes = (
{
closed = 1;
nodes = (
(560,229,l),
(528,234,l),
(490,-14,l),
(560,12,l)
);
},
{
closed = 1;
nodes = (
(549,190,o),
(560,195,o),
(560,227,c),
(560,244,o),
(560,162,o),
(560,512,c),
(490,486,l),
(491,205,o),
(491,158,o),
(491,151,c),
(414,70,o),
(126,-16,o),
(130,157,c),
(140,512,l),
(70,489,l),
(70,134,l),
(70,-138,o),
(433,28,o),
(517,145,c)
);
}
);
width = 630;
}
);
unicode = 117;
},
{
glyphname = v;
lastChange = "2023-06-06 09:31:28 +0000";
layers = (
{
layerId = m01;
shapes = (
{
closed = 1;
nodes = (
(317,-11,l),
(458,148,o),
(542,390,o),
(559,504,c),
(560,512,l),
(539,507,l),
(537,498,l),
(520,412,o),
(401,203,o),
(302,104,c),
(159,500,l),
(70,500,l)
);
}
);
width = 630;
}
);
unicode = 118;
},
{
glyphname = w;
lastChange = "2023-06-06 08:31:56 +0000";
layers = (
{
layerId = m01;
shapes = (
{
closed = 1;
nodes = (
(770,227,l),
(737,270,l),
(699,-13,l),
(769,13,l)
);
},
{
closed = 1;
nodes = (
(759,190,o),
(770,195,o),
(770,227,c),
(770,244,o),
(770,162,o),
(770,512,c),
(700,486,l),
(701,205,o),
(701,158,o),
(701,151,c),
(624,70,o),
(441,-16,o),
(445,157,c),
(455,480,l),
(385,457,l),
(385,134,l),
(385,-138,o),
(643,28,o),
(727,145,c)
);
},
{
closed = 1;
nodes = (
(444,188,o),
(445,160,o),
(455,510,c),
(385,484,l),
(386,203,o),
(386,156,o),
(386,149,c),
(309,68,o),
(126,-18,o),
(130,155,c),
(140,510,l),
(70,487,l),
(70,132,l),
(70,-140,o),
(328,26,o),
(412,143,c)
);
}
);
width = 770;
}
);
unicode = 119;
},
{
glyphname = x;
lastChange = "2023-06-06 09:14:42 +0000";
layers = (
{
layerId = m01;
shapes = (
{
closed = 1;
nodes = (
(560,26,l),
(150,512,l),
(80,486,l),
(490,0,l)
);
},
{
closed = 1;
nodes = (
(490,500,l),
(296,323,l),
(315,305,l),
(560,500,l)
);
},
{
closed = 1;
nodes = (
(141,0,l),
(338,186,l),
(319,204,l),
(70,0,l)
);
}
);
width = 630;
}
);
unicode = 120;
},
{
glyphname = y;
lastChange = "2023-06-06 08:31:36 +0000";
layers = (
{
layerId = m01;
shapes = (
{
closed = 1;
nodes = (
(490,-742,l),
(490,-3177,l),
(560,-3148,l),
(560,-719,ls),
(560,-655,o),
(559,129,o),
(560,344,c),
(490,344,l)
);
},
{
closed = 1;
nodes = (
(490,486,l),
(490,250,l),
(560,250,l),
(560,512,l)
);
},
{
closed = 1;
nodes = (
(549,190,o),
(560,195,o),
(560,227,c),
(560,244,o),
(560,162,o),
(560,512,c),
(490,486,l),
(491,205,o),
(491,158,o),
(491,151,c),
(414,70,o),
(125,-16,o),
(130,157,cs),
(140,512,l),
(70,489,l),
(70,134,l),
(70,-138,o),
(433,28,o),
(517,145,c)
);
}
);
width = 630;
}
);
unicode = 121;
},
{
glyphname = z;
lastChange = "2023-06-06 09:28:25 +0000";
layers = (
{
layerId = m01;
shapes = (
{
closed = 1;
nodes = (
(143,32,l),
(279,139,o),
(439,322,o),
(503,500,c),
(140,500,l),
(71,431,l),
(411,468,l),
(322,261,o),
(172,105,o),
(58,0,c),
(478,0,l),
(489,70,l)
);
}
);
width = 560;
}
);
unicode = 122;
},
{
glyphname = a.001;
layers = (
{
layerId = m01;
shapes = (
{
closed = 1;
nodes = (
(490,52,o),
(386,23,o),
(317,23,cs),
(238,23,o),
(179,57,o),
(174,145,c),
(313,206,o),
(447,295,o),
(534,351,c),
(516,364,l),
(420,295,o),
(223,204,o),
(70,145,c),
(66,32,o),
(162,-8,o),
(294,-8,cs),
(427,-8,o),
(560,65,o),
(559,173,c),
(490,150,l)
);
},
{
closed = 1;
nodes = (
(87,358,o),
(87,350,o),
(87,350,c),
(368,382,l),
(351,396,l),
(181,396,l),
(196,437,o),
(275,486,o),
(367,486,cs),
(447,486,o),
(486,443,o),
(487,346,cs),
(490,-12,l),
(560,14,l),
(560,315,ls),
(560,473,o),
(472,510,o),
(355,510,cs),
(266,510,o),
(165,485,o),
(107,393,c)
);
}
);
width = 630;
}
);
},
{
glyphname = a.002;
layers = (
{
layerId = m01;
shapes = (
{
closed = 1;
nodes = (
(490,52,o),
(386,23,o),
(317,23,cs),
(238,23,o),
(179,57,o),
(174,145,c),
(313,206,o),
(447,295,o),
(534,351,c),
(516,364,l),
(420,295,o),
(223,204,o),
(70,145,c),
(66,32,o),
(162,-8,o),
(294,-8,cs),
(427,-8,o),
(560,65,o),
(559,173,c),
(490,150,l)
);
},
{
closed = 1;
nodes = (
(490,-11,l),
(560,15,l),
(560,315,ls),
(560,320,o),
(490,364,o),
(490,356,cs)
);
},
{
closed = 0;
nodes = (
(490,449,l)
);
},
{
closed = 1;
nodes = (
(490,401,o),
(490,369,o),
(490,356,c),
(560,315,l),
(560,370,o),
(560,397,o),
(560,500,c),
(370,526,o),
(173,424,o),
(86,364,c),
(83,361,o),
(77,358,o),
(79,359,c),
(98,347,l),
(99,352,o),
(103,350,o),
(106,352,cs),
(178,401,o),
(350,449,o),
(490,449,c)
);
}
);
width = 630;
}
);
},
{
glyphname = d.001;
layers = (
{
layerId = m01;
shapes = (
{
closed = 1;
nodes = (
(560,3301,ls),
(560,2939,o),
(560,2433,o),
(560,2407,cs),
(560,-12,l),
(630,11,l),
(629,2429,ls),
(629,2479,o),
(629,2962,o),
(629,3324,cs),
(629,3661,l),
(560,3638,l)
);
},
{
closed = 1;
nodes = (
(139,509,o),
(451,447,o),
(560,447,c),
(560,446,l),
(617,511,l),
(617,512,l),
(365,512,o),
(70,481,o),
(70,239,cs),
(70,117,o),
(169,-9,o),
(340,-9,cs),
(513,-9,o),
(630,131,o),
(629,262,c),
(560,262,l),
(560,123,o),
(482,21,o),
(363,21,cs),
(250,21,o),
(139,119,o),
(139,276,c)
);
}
);
width = 700;
}
);
},
{
glyphname = d.002;
lastChange = "2023-06-05 07:58:16 +0000";
layers = (
{
layerId = m01;
shapes = (
{
closed = 1;
nodes = (
(560,3301,ls),
(560,2939,o),
(560,2433,o),
(560,2407,cs),
(560,209,l),
(630,232,l),
(629,2429,ls),
(629,2479,o),
(629,2962,o),
(629,3324,cs),
(629,3661,l),
(560,3638,l)
);
},
{
closed = 1;
nodes = (
(620,374,o),
(524,511,o),
(363,511,c),
(200,511,o),
(70,385,o),
(70,239,cs),
(70,90,o),
(169,-9,o),
(340,-9,cs),
(501,-9,o),
(613,101,o),
(628,232,c),
(560,232,l),
(560,176,o),
(490,21,o),
(336,21,cs),
(223,21,o),
(139,77,o),
(139,207,cs),
(139,377,o),
(285,466,o),
(385,466,cs),
(467,466,o),
(519,442,o),
(580,378,c),
(608,378,l)
);
},
{
closed = 1;
nodes = (
(630,257,l),
(597,236,l),
(560,-12,l),
(630,17,l)
);
}
);
width = 700;
}
);
},
{
glyphname = y.001;
layers = (
{
layerId = m01;
shapes = (
{
closed = 1;
nodes = (
(490,-742,l),
(490,-3177,l),
(560,-3148,l),
(560,-719,ls),
(560,-655,o),
(559,129,o),
(560,344,c),
(490,344,l)
);
},
{
closed = 1;
nodes = (
(70,22,l),
(358,22,o),
(468,182,o),
(527,258,c),
(515,275,l),
(449,205,o),
(267,87,o),
(127,87,c),
(140,512,l),
(71,486,l)
);
},
{
closed = 1;
nodes = (
(490,486,l),
(490,250,l),
(560,250,l),
(560,512,l)
);
}
);
width = 630;
}
);
},
{
glyphname = period;
layers = (
{
layerId = m01;
shapes = (
{
closed = 1;
nodes = (
(179,0,o),
(210,32,o),
(210,71,cs),
(210,109,o),
(179,140,o),
(141,140,cs),
(102,140,o),
(70,109,o),
(70,71,cs),
(70,32,o),
(102,0,o),
(141,0,cs)
);
}
);
width = 280;
}
);
unicode = 46;
},
{
glyphname = quotedbl;
layers = (
{
layerId = m01;
shapes = (
{
closed = 1;
nodes = (
(70,797,l),
(92,655,l),
(118,655,l),
(140,797,l)
);
},
{
closed = 1;
nodes = (
(140,513,l),
(118,655,l),
(92,655,l),
(70,513,l)
);
},
{
closed = 1;
nodes = (
(210,514,l),
(188,656,l),
(162,656,l),
(140,514,l)
);
},
{
closed = 1;
nodes = (
(140,798,l),
(162,656,l),
(188,656,l),
(210,798,l)
);
}
);
width = 280;
}
);
unicode = 34;
},
{
glyphname = ampersand;
layers = (
{
layerId = m01;
shapes = (
{
closed = 1;
nodes = (
(565,17,o),
(430,322,o),
(430,322,c),
(370,283,l),
(444,116,o),
(513,-38,o),
(512,-35,c),
(565,17,l)
);
},
{
closed = 1;
nodes = (
(340,279,l),
(329,306,o),
(323,335,o),
(323,365,cs),
(324,505,o),
(402,584,o),
(524,584,cs),
(576,584,o),
(636,554,o),
(664,474,c),
(571,395,o),
(382,312,o),
(255,258,c),
(262,240,l),
(410,296,o),
(662,393,o),
(765,485,c),
(737,560,o),
(669,615,o),
(547,614,cs),
(395,614,o),
(255,474,o),
(254,342,cs),
(254,309,o),
(259,277,o),
(269,250,c)
);
},
{
closed = 1;
nodes = (
(255,258,l),
(171,226,o),
(97,199,o),
(53,187,c),
(5,170,l),
(37,71,o),
(135,-10,o),
(275,-9,cs),
(335,-10,o),
(412,21,o),
(456,58,c),
(445,81,l),
(441,76,o),
(437,73,o),
(430,67,c),
(388,33,o),
(337,22,o),
(298,22,cs),
(215,22,o),
(129,85,o),
(93,177,c),
(138,192,o),
(197,214,o),
(262,240,c)
);
}
);
width = 770;
}
);
unicode = 38;
},
{
glyphname = sharp_corner;
layers = (
{
layerId = m01;
shapes = (
{
closed = 1;
nodes = (
(560,500,l),
(317,500,o),
(195,432,o),
(103,364,c),
(100,361,o),
(94,358,o),
(96,359,c),
(115,347,l),
(116,352,o),
(120,350,o),
(123,352,cs),
(195,401,o),
(363,435,o),
(503,435,c),
(490,-10,l),
(560,16,l)
);
}
);
width = 630;
}
);
},
{
glyphname = spur;
layers = (
{
layerId = m01;
shapes = (
{
closed = 1;
nodes = (
(560,250,l),
(630,250,l),
(630,481,l),
(560,510,l)
);
}
);
width = 700;
}
);
},
{
glyphname = spur2;
layers = (
{
layerId = m01;
shapes = (
{
closed = 1;
nodes = (
(604,250,l),
(630,250,l),
(630,481,l),
(560,510,l)
);
}
);
width = 700;
}
);
},
{
glyphname = spur3;
layers = (
{
layerId = m01;
shapes = (
{
closed = 1;
nodes = (
(560,482,l),
(560,250,l),
(586,250,l),
(630,508,l)
);
}
